<svg width="32" height="27" viewBox="0 0 32 27" fill="none" xmlns="http://www.w3.org/2000/svg">
<path d="M29.8154 7.56451L27.8167 10.5708C28.7806 12.4933 29.2525 14.6249 29.1901 16.7746C29.1277 18.9243 28.5329 21.0249 27.4592 22.8883H4.93666C3.54106 20.4672 2.96277 17.6608 3.28751 14.8852C3.61226 12.1097 4.82277 9.5126 6.73956 7.47908C8.65636 5.44556 11.1774 4.08383 13.929 3.59576C16.6806 3.1077 19.5162 3.51929 22.0154 4.76951L25.0217 2.77076C21.9609 0.80811 18.3304 -0.0713586 14.7109 0.27303C11.0913 0.617419 7.69176 2.16577 5.05609 4.6704C2.42042 7.17504 0.700875 10.4912 0.172515 14.0886C-0.355844 17.6859 0.337506 21.3565 2.14166 24.5133C2.42524 25.0045 2.83243 25.4129 3.32276 25.698C3.81309 25.983 4.36949 26.1348 4.93666 26.1383H27.4429C28.0156 26.1405 28.5787 25.9914 29.0752 25.7061C29.5718 25.4207 29.9841 25.0092 30.2704 24.5133C31.7676 21.9196 32.519 18.9627 32.4416 15.9689C32.3642 12.9752 31.461 10.061 29.8317 7.54826L29.8154 7.56451ZM13.9067 18.6795C14.2085 18.9817 14.5669 19.2214 14.9615 19.385C15.356 19.5485 15.7789 19.6327 16.206 19.6327C16.6331 19.6327 17.056 19.5485 17.4506 19.385C17.8451 19.2214 18.2036 18.9817 18.5054 18.6795L27.7029 4.88326L13.9067 14.0808C13.6045 14.3826 13.3648 14.741 13.2012 15.1356C13.0377 15.5301 12.9535 15.953 12.9535 16.3801C12.9535 16.8072 13.0377 17.2301 13.2012 17.6247C13.3648 18.0192 13.6045 18.3777 13.9067 18.6795Z" fill="#FF7B47"/>
</svg>
