<svg width="30" height="30" viewBox="0 0 30 30" fill="none" xmlns="http://www.w3.org/2000/svg">
<path fill-rule="evenodd" clip-rule="evenodd" d="M17.2367 7.97146C16.7729 8.29303 16.2497 8.519 15.6976 8.63619C15.1456 8.75338 14.5757 8.75944 14.0212 8.65402C13.4668 8.5486 12.9389 8.33381 12.4684 8.02218C11.9979 7.71055 11.5941 7.30833 11.2807 6.83899C10.9673 6.36965 10.7505 5.84259 10.643 5.28856C10.5354 4.73453 10.5393 4.16463 10.6544 3.61213C10.7695 3.05962 10.9935 2.53557 11.3133 2.07056C11.6331 1.60554 12.0423 1.20888 12.517 0.903712C13.4544 0.284612 14.5986 0.0617643 15.6998 0.283882C16.8009 0.506 17.7693 1.15502 18.3933 2.08906C19.0173 3.0231 19.2462 4.1662 19.0298 5.26848C18.8135 6.37076 18.1696 7.34257 17.2388 7.97146H17.2367ZM16.0573 2.67171C15.8259 2.50523 15.5633 2.38702 15.2853 2.32411C15.0072 2.2612 14.7193 2.25488 14.4388 2.30553C14.1583 2.35618 13.8908 2.46276 13.6523 2.61893C13.4138 2.77509 13.2091 2.97765 13.0505 3.21455C12.8919 3.45144 12.7826 3.71783 12.7291 3.99784C12.6756 4.27786 12.679 4.56578 12.739 4.84446C12.7991 5.12314 12.9146 5.38689 13.0788 5.62C13.2429 5.8531 13.4522 6.05081 13.6943 6.20134C14.162 6.48548 14.7214 6.5782 15.2558 6.46018C15.7902 6.34217 16.2585 6.02253 16.563 5.56784C16.8676 5.11315 16.985 4.55847 16.8908 4.01936C16.7966 3.48025 16.498 2.99828 16.0573 2.67384V2.67171ZM21.6036 2.73546C22.2164 2.32322 22.9539 2.13757 23.6889 2.21049C24.4239 2.28341 25.1105 2.61033 25.6304 3.13496C26.0009 3.50843 26.2741 3.9671 26.426 4.47074C26.578 4.97438 26.604 5.50761 26.5018 6.02366C26.3997 6.5397 26.1724 7.0228 25.8401 7.43057C25.5077 7.83834 25.0804 8.15832 24.5956 8.36246C24.0133 8.60593 23.3715 8.67006 22.7526 8.54664C22.1336 8.42323 21.5656 8.11789 21.1212 7.66971C20.7872 7.334 20.5315 6.9286 20.3725 6.48254C20.2135 6.03648 20.155 5.56078 20.2013 5.08949C20.2476 4.6182 20.3975 4.16297 20.6403 3.75638C20.8831 3.34979 21.2127 3.00189 21.6057 2.73759L21.6036 2.73546ZM22.6236 6.15671C22.8231 6.35538 23.0933 6.46665 23.3749 6.46605C23.5143 6.46575 23.6523 6.438 23.7809 6.38438C23.9096 6.33076 24.0265 6.25231 24.1249 6.15352C24.2232 6.05474 24.3012 5.93754 24.3543 5.80863C24.4073 5.67972 24.4345 5.54162 24.4342 5.40221C24.4339 5.2628 24.4062 5.12481 24.3525 4.99613C24.2989 4.86744 24.2205 4.75058 24.1217 4.65221C23.9238 4.45323 23.6564 4.33894 23.3758 4.33346C23.2357 4.33318 23.0968 4.36068 22.9674 4.41437C22.8379 4.46806 22.7204 4.54689 22.6216 4.64628C22.5228 4.74568 22.4447 4.86367 22.3918 4.99345C22.3388 5.12322 22.3122 5.26219 22.3133 5.40234C22.314 5.68534 22.4253 5.95685 22.6236 6.15884V6.15671ZM4.65455 24.5975H8.5008V26.7331H4.65455C3.98123 26.727 3.3378 26.4542 2.8653 25.9745C2.39099 25.493 2.12533 24.8441 2.1258 24.1682V20.322C1.8397 20.3124 1.5585 20.245 1.29919 20.1237C1.03988 20.0024 0.807827 19.8299 0.61705 19.6165C0.414334 19.4111 0.255241 19.1669 0.149338 18.8985C0.0434344 18.6301 -0.00709083 18.343 0.000800442 18.0546V13.4178C0.00717544 12.4148 0.40455 11.4565 1.1058 10.7446C1.80493 10.0412 2.75055 9.63959 3.7408 9.63321H7.6508C7.1234 10.2613 6.72612 10.988 6.48205 11.771H3.7408C3.30951 11.7833 2.89915 11.9596 2.5933 12.264C2.29287 12.5729 2.1251 12.9869 2.1258 13.4178V18.1608H4.2508V24.1661C4.24587 24.224 4.25275 24.2823 4.27101 24.3374C4.28928 24.3926 4.31855 24.4435 4.35705 24.487C4.44247 24.553 4.54664 24.5902 4.65455 24.5932V24.5975ZM20.167 10.7467C19.8193 10.3956 19.4057 10.1167 18.9498 9.92597C18.494 9.73524 18.0049 9.63648 17.5108 9.63534H12.2408C11.2502 9.64326 10.3029 10.0428 9.6058 10.7467C8.90455 11.4586 8.50718 12.417 8.5008 13.42V20.1732C8.4978 20.7531 8.71853 21.3117 9.11705 21.733C9.30806 21.9461 9.54016 22.1185 9.79943 22.2397C10.0587 22.3609 10.3398 22.4285 10.6258 22.4385V27.3748C10.6238 27.7118 10.6885 28.0458 10.8161 28.3576C10.9438 28.6694 11.1319 28.9529 11.3696 29.1917C11.7521 29.5487 12.2344 29.7803 12.7508 29.8547H17.0008C17.5985 29.7763 18.1461 29.4796 18.5384 29.0219C18.9306 28.5641 19.1398 27.9775 19.1258 27.3748V22.4363C19.4119 22.4268 19.6931 22.3593 19.9524 22.2381C20.2117 22.1168 20.4438 21.9443 20.6346 21.7308C20.8371 21.5258 20.9961 21.282 21.102 21.0139C21.2079 20.7459 21.2585 20.4592 21.2508 20.1711V13.4178C21.2523 12.4195 20.8633 11.4601 20.167 10.7446V10.7467ZM19.1258 20.2773H17.0008V27.3748C16.9987 27.4868 16.953 27.5936 16.8733 27.6723C16.837 27.7153 16.7913 27.7491 16.7396 27.7713C16.688 27.7934 16.6319 27.8032 16.5758 27.7998H13.1546C13.0435 27.7947 12.9384 27.7482 12.8598 27.6696C12.7812 27.591 12.7347 27.4859 12.7296 27.3748V20.2773H10.6258V13.4178C10.6258 12.9865 10.7937 12.5721 11.0933 12.264C11.3992 11.9596 11.8095 11.7833 12.2408 11.771H17.5108C17.8327 11.7766 18.146 11.8762 18.4121 12.0574C18.6782 12.2386 18.8857 12.4935 19.0089 12.791C19.0898 12.9899 19.1296 13.2031 19.1258 13.4178V20.2773ZM25.0971 26.731H21.2508V24.5953H25.0758C25.1837 24.5923 25.2879 24.5551 25.3733 24.4891C25.4161 24.4473 25.4496 24.3969 25.4715 24.3412C25.4935 24.2855 25.5035 24.2259 25.5008 24.1661V18.1608H27.6258V13.4178C27.6265 12.9869 27.4587 12.5729 27.1583 12.264C26.8524 11.9596 26.4421 11.7833 26.0108 11.771H23.2696C23.0256 10.9879 22.6283 10.2612 22.1008 9.63321H26.0108C27.0012 9.64229 27.9481 10.0416 28.6458 10.7446C29.347 11.4565 29.7444 12.4148 29.7508 13.4178V18.0546C29.7508 18.6347 29.5319 19.1915 29.1367 19.6122C28.7414 20.0351 28.2017 20.288 27.6258 20.3198V24.1661C27.6258 24.844 27.3602 25.4921 26.8863 25.9723C26.4138 26.4521 25.7704 26.7249 25.0971 26.731ZM6.3758 2.19571C5.74346 2.19498 5.12531 2.38309 4.60057 2.73595C4.07583 3.0888 3.66842 3.59032 3.43055 4.17621C3.19049 4.7619 3.12817 5.40531 3.25136 6.02618C3.37456 6.64706 3.67781 7.21792 4.1233 7.66759C4.56863 8.11673 5.13774 8.42293 5.75793 8.54707C6.37812 8.67121 7.02124 8.60765 7.60514 8.36451C8.18903 8.12137 8.68719 7.7097 9.03598 7.18207C9.38478 6.65444 9.56837 6.03481 9.5633 5.40234C9.5633 4.55234 9.22755 3.73634 8.6283 3.13496C8.33323 2.83775 7.98233 2.60176 7.59577 2.44058C7.20921 2.27939 6.79462 2.19617 6.3758 2.19571ZM6.3758 6.47121C6.23565 6.4715 6.09684 6.444 5.96739 6.39031C5.83793 6.33661 5.72041 6.25779 5.6216 6.15839C5.5228 6.059 5.44468 5.941 5.39176 5.81123C5.33885 5.68146 5.31218 5.54248 5.3133 5.40234C5.31385 5.12013 5.42577 4.84954 5.62473 4.64939C5.82368 4.44924 6.0936 4.3357 6.3758 4.33346C6.65714 4.33842 6.92548 4.45282 7.12386 4.65239C7.32223 4.85195 7.43503 5.12097 7.4383 5.40234C7.43775 5.68455 7.32583 5.95514 7.12688 6.15529C6.92792 6.35544 6.658 6.46897 6.3758 6.47121Z" fill="#FF7B47"/>
</svg>
